HIERARCHY
ROOT Hips
{
	OFFSET 0.00000 0.00000 0.00000
	CHANNELS 6 Xposition Yposition Zposition Zrotation Yrotation Xrotation 
	JOINT LHipJoint
	{
		OFFSET 0 0 0
		CHANNELS 3 Zrotation Yrotation Xrotation
		JOINT LeftUpLeg
		{
			OFFSET 1.57358 -1.76629 0.73362
			CHANNELS 3 Zrotation Yrotation Xrotation
			JOINT LeftLeg
			{
				OFFSET 2.40600 -6.61045 0.00000
				CHANNELS 3 Zrotation Yrotation Xrotation
				JOINT LeftFoot
				{
					OFFSET 2.66168 -7.31291 0.00000
					CHANNELS 3 Zrotation Yrotation Xrotation
					JOINT LeftToeBase
					{
						OFFSET 0.20870 -0.57341 2.12506
						CHANNELS 3 Zrotation Yrotation Xrotation
						End Site
						{
							OFFSET 0.00000 -0.00000 1.10557
						}
					}
				}
			}
		}
	}
	JOINT RHipJoint
	{
		OFFSET 0 0 0
		CHANNELS 3 Zrotation Yrotation Xrotation
		JOINT RightUpLeg
		{
			OFFSET -1.49299 -1.76629 0.73362
			CHANNELS 3 Zrotation Yrotation Xrotation
			JOINT RightLeg
			{
				OFFSET -2.43663 -6.69460 0.00000
				CHANNELS 3 Zrotation Yrotation Xrotation
				JOINT RightFoot
				{
					OFFSET -2.62959 -7.22474 0.00000
					CHANNELS 3 Zrotation Yrotation Xrotation
					JOINT RightToeBase
					{
						OFFSET -0.25784 -0.70841 2.21862
						CHANNELS 3 Zrotation Yrotation Xrotation
						End Site
						{
							OFFSET -0.00000 -0.00000 1.16452
						}
					}
				}
			}
		}
	}
	JOINT LowerBack
	{
		OFFSET 0 0 0
		CHANNELS 3 Zrotation Yrotation Xrotation
		JOINT Spine
		{
			OFFSET -0.00034 2.12399 -0.25450
			CHANNELS 3 Zrotation Yrotation Xrotation
			JOINT Spine1
			{
				OFFSET 0.05594 2.14379 -0.03318
				CHANNELS 3 Zrotation Yrotation Xrotation
				JOINT Neck
				{
					OFFSET 0 0 0
					CHANNELS 3 Zrotation Yrotation Xrotation
					JOINT Neck1
					{
						OFFSET -0.09835 1.62725 0.24211
						CHANNELS 3 Zrotation Yrotation Xrotation
						JOINT Head
						{
							OFFSET 0.10849 1.66041 -0.22648
							CHANNELS 3 Zrotation Yrotation Xrotation
							End Site
							{
								OFFSET 0.04385 1.68267 -0.10541
							}
						}
					}
				}
				JOINT LeftShoulder
				{
					OFFSET 0 0 0
					CHANNELS 3 Zrotation Yrotation Xrotation
					JOINT LeftArm
					{
						OFFSET 3.29108 0.79398 -0.68179
						CHANNELS 3 Zrotation Yrotation Xrotation
						JOINT LeftForeArm
						{
							OFFSET 5.15310 -0.00000 -0.00000
							CHANNELS 3 Zrotation Yrotation Xrotation
							JOINT LeftHand
							{
								OFFSET 3.75138 -0.00000 -0.00000
								CHANNELS 3 Zrotation Yrotation Xrotation
								JOINT LeftFingerBase
								{
									OFFSET 0 0 0
									CHANNELS 3 Zrotation Yrotation Xrotation
									JOINT LeftHandIndex1
									{
										OFFSET 0.52917 -0.00000 0.00000
										CHANNELS 3 Zrotation Yrotation Xrotation
										End Site
										{
											OFFSET 0.42663 -0.00000 0.00000
										}
									}
								}
								JOINT LThumb
								{
									OFFSET 0 0 0
									CHANNELS 3 Zrotation Yrotation Xrotation
									End Site
									{
										OFFSET 0.43315 -0.00000 0.43315
									}
								}
							}
						}
					}
				}
				JOINT RightShoulder
				{
					OFFSET 0 0 0
					CHANNELS 3 Zrotation Yrotation Xrotation
					JOINT RightArm
					{
						OFFSET -3.07414 1.06285 -0.44338
						CHANNELS 3 Zrotation Yrotation Xrotation
						JOINT RightForeArm
						{
							OFFSET -5.29613 -0.00000 0.00000
							CHANNELS 3 Zrotation Yrotation Xrotation
							JOINT RightHand
							{
								OFFSET -3.76144 -0.00000 -0.00000
								CHANNELS 3 Zrotation Yrotation Xrotation
								JOINT RightFingerBase
								{
									OFFSET 0 0 0
									CHANNELS 3 Zrotation Yrotation Xrotation
									JOINT RightHandIndex1
									{
										OFFSET -0.74732 -0.00000 0.00000
										CHANNELS 3 Zrotation Yrotation Xrotation
										End Site
										{
											OFFSET -0.60251 -0.00000 0.00000
										}
									}
								}
								JOINT RThumb
								{
									OFFSET 0 0 0
									CHANNELS 3 Zrotation Yrotation Xrotation
									End Site
									{
										OFFSET -0.61171 -0.00000 0.61171
									}
								}
							}
						}
					}
				}
			}
		}
	}
}
MOTION
Frames: 5
Frame Time: .0083333
13.2316 17.5826 -0.0423 4.3878 -9.2817 2.5220 0.0000 0.0000 0.0000 -23.8694 -2.9257 -10.5640 1.8120 8.4631 24.1296 0.5873 1.8588 -15.2683 0.0153 -0.7995 -2.1973 0.0000 0.0000 0.0000 17.4708 2.2174 -33.5328 -3.2697 -11.1193 32.6833 0.0157 -9.0436 -12.5989 -0.0903 1.9376 -5.3334 -5.1993 -0.9580 8.3956 1.2848 -1.7213 0.0920 4.4768 -0.7280 -4.4259 -9.3659 -4.6016 -17.1404 6.4959 -5.5441 23.2877 3.1070 -2.6099 10.7878 0.0000 -0.0000 0.0000 -84.7960 -8.7919 20.2069 14.4390 -23.3588 -3.0000 -0.0000 -0.0000 8.2041 17.0525 25.2951 7.4667 -7.1250 0.0000 -0.0000 -13.6252 55.7622 -3.6468 0.0000 -0.0000 0.0000 88.9582 -1.9480 10.0742 -16.2014 25.7930 -3.7332 0.0000 0.0000 8.4588 -14.1071 11.8921 -2.9646 7.1250 -0.0000 -0.0000 9.1213 -17.8201 5.9686
13.2054 17.5673 0.0599 4.7181 -9.5443 2.6114 0.0000 0.0000 0.0000 -24.1881 -3.5304 -10.2165 1.7803 8.3926 23.9131 0.6038 2.3052 -15.6939 0.0018 -0.2772 -0.7617 0.0000 0.0000 0.0000 17.3831 1.9868 -33.6452 -2.8609 -10.4664 30.5006 0.1176 -10.0791 -12.2394 -0.1117 2.1550 -5.9342 -5.3685 -1.0055 8.0226 1.1493 -1.7825 0.2739 4.4211 -0.7737 -4.0183 -9.0332 -4.5533 -17.6390 6.3050 -5.4752 23.3195 2.9866 -2.5619 10.8725 -0.0000 -0.0000 0.0000 -84.5511 -9.5404 20.0806 14.4000 -23.3037 -2.9845 -0.0000 -0.0000 8.1220 16.7800 25.9416 7.5144 -7.1250 0.0000 -0.0000 -14.2446 56.3434 -4.0195 -0.0000 -0.0000 0.0000 89.0441 -1.6918 9.9858 -16.0834 25.6336 -3.6820 0.0000 0.0000 8.1336 -14.4764 12.1394 -3.1077 7.1250 -0.0000 -0.0000 8.8612 -17.5446 5.8485
13.1719 17.5658 0.1613 4.8898 -9.9398 2.6718 0.0000 0.0000 0.0000 -24.4322 -2.6904 -9.8187 1.7460 8.3156 23.6768 0.6763 2.2032 -16.4855 0.0547 -1.5091 -4.1508 0.0000 0.0000 0.0000 17.5112 1.9187 -33.5739 -2.4795 -9.8006 28.3333 0.1989 -10.9508 -12.1102 -0.0868 1.9003 -5.2302 -5.3646 -0.9897 7.5913 1.0427 -1.7383 0.4157 4.2860 -0.7683 -3.6366 -9.2299 -4.4322 -17.3474 6.6376 -5.3489 23.0521 3.1600 -2.4865 10.7218 -0.0000 0.0000 0.0000 -84.2632 -9.9991 20.1326 14.3705 -23.2619 -2.9729 -0.0000 -0.0000 8.3046 16.5289 25.4093 7.2567 -7.1250 0.0000 -0.0000 -14.2210 55.7694 -3.8134 -0.0000 0.0000 0.0000 89.1699 -1.5048 9.6182 -15.9955 25.5145 -3.6440 0.0000 0.0000 8.2631 -15.4386 12.6504 -3.4611 7.1250 -0.0000 -0.0000 8.1908 -16.9555 5.5031
13.1395 17.5624 0.2564 5.0962 -10.3442 2.6590 0.0000 0.0000 0.0000 -24.6863 -2.1994 -9.2762 1.6946 8.1987 23.3193 0.6961 2.4487 -16.8335 0.0728 -1.7410 -4.7903 0.0000 0.0000 0.0000 17.4980 2.0081 -33.4129 -2.1557 -9.1832 26.3700 0.2995 -11.8992 -11.8031 -0.0747 1.7626 -4.8501 -5.4731 -0.9836 7.6067 0.9714 -1.7451 0.3365 4.2754 -0.7657 -3.7263 -9.4114 -4.3519 -17.0077 6.7726 -5.2597 23.1737 3.2588 -2.4542 10.7021 0.0000 -0.0000 0.0000 -84.0255 -10.0476 20.2326 14.4210 -23.3334 -2.9928 -0.0000 -0.0000 7.9599 16.2573 25.8455 7.2450 -7.1250 0.0000 -0.0000 -14.7310 56.1423 -4.0886 0.0000 -0.0000 0.0000 89.2075 -1.7322 9.7105 -16.0522 25.5914 -3.6685 0.0000 0.0000 8.2425 -15.0828 12.6670 -3.3821 7.1250 -0.0000 -0.0000 8.4368 -16.9647 5.6703
13.1104 17.5552 0.3568 5.4439 -10.6433 2.6128 0.0000 0.0000 0.0000 -25.0944 -2.0962 -8.6804 1.6368 8.0647 22.9109 0.6700 2.8483 -16.7531 0.0347 -1.2017 -3.3039 0.0000 0.0000 0.0000 17.3173 1.8602 -33.2748 -1.8686 -8.5869 24.5114 0.3842 -12.8897 -12.0863 -0.0314 1.1434 -3.1434 -5.8111 -1.0600 7.8206 1.0014 -1.8940 0.1034 4.5249 -0.8164 -4.0618 -9.5034 -4.2243 -16.8417 6.6116 -5.0423 23.4499 3.2540 -2.3884 10.7496 0.0000 -0.0000 0.0000 -84.0229 -9.9625 20.1038 14.4147 -23.3244 -2.9903 -0.0000 -0.0000 7.4987 15.9838 26.9735 7.4026 -7.1250 0.0000 -0.0000 -15.6484 57.1851 -4.7498 0.0000 -0.0000 0.0000 88.9712 -2.2346 9.9801 -16.0793 25.6280 -3.6802 0.0000 0.0000 8.1866 -14.3800 12.3008 -3.1265 7.1250 -0.0000 -0.0000 8.9263 -17.3870 5.9238
